<?xml version="1.0" encoding="UTF-8"?>
<!-- Created with Inkscape (http://www.inkscape.org/) -->
<svg width="514.53101" height="1040.731" version="1.1" xmlns="http://www.w3.org/2000/svg" xmlns:cc="http://creativecommons.org/ns#" xmlns:dc="http://purl.org/dc/elements/1.1/" xmlns:rdf="http://www.w3.org/1999/02/22-rdf-syntax-ns#" xmlns:xlink="http://www.w3.org/1999/xlink">
<defs>
<linearGradient id="linearGradient10750">
<stop stop-color="#fbddcb" stop-opacity=".27450982" offset="0"/>
<stop stop-color="#fbddcb" offset=".05"/>
<stop stop-color="#fbddcb" offset=".94999999"/>
<stop stop-color="#fbddcb" stop-opacity=".27450982" offset="1"/>
</linearGradient>
<filter id="filter11011" x="-.0018431405" y="-.00088958914" width="1.0036863" height="1.0017792" color-interpolation-filters="sRGB">
<feGaussianBlur stdDeviation="0.33447266"/>
</filter>
<clipPath id="clipPath11030">
<rect x="617.15424" y="97.739677" width="439.41638" height="907.0506" ry="66.0093" fill="none" stroke="#252624"/>
</clipPath>
<filter id="filter11042" x="-.0037228055" y="-.0017707931" width="1.0074456" height="1.0035416" color-interpolation-filters="sRGB">
<feGaussianBlur stdDeviation="0.66002371"/>
</filter>
<clipPath id="clipPath11061">
<rect x="617.15424" y="97.739677" width="439.41638" height="907.0506" ry="66.0093" fill="none" stroke="#252624"/>
</clipPath>
<clipPath id="clipPath1696-6-7">
<circle cx="315.6597" cy="944.17999" r="34.127758" fill="#895a45" fill-rule="evenodd"/>
</clipPath>
<filter id="filter1932-4-2" x="-.18330148" y="-.16999935" width="1.366603" height="1.3399987" color-interpolation-filters="sRGB">
<feGaussianBlur stdDeviation="3.2003088"/>
</filter>
<filter id="filter2136-4-5" x="-.21562234" y="-.24735227" width="1.4312447" height="1.4947045" color-interpolation-filters="sRGB">
<feGaussianBlur stdDeviation="3.4147931"/>
</filter>
<filter id="filter1908-1-0" x="-.093219571" y="-.055530038" width="1.1864392" height="1.1110601" color-interpolation-filters="sRGB">
<feGaussianBlur stdDeviation="1.0813847"/>
</filter>
<filter id="filter1501-8-1" x="-.077080078" y="-.058394574" width="1.1541601" height="1.1167891" color-interpolation-filters="sRGB">
<feGaussianBlur stdDeviation="0.78543346"/>
</filter>
<filter id="filter1497-7-4" x="-.25708884" y="-.10030361" width="1.5141777" height="1.2006072" color-interpolation-filters="sRGB">
<feGaussianBlur stdDeviation="0.78543346"/>
</filter>
<filter id="filter1493-5-6" x="-.081431791" y="-.049159799" width="1.1628636" height="1.0983196" color-interpolation-filters="sRGB">
<feGaussianBlur stdDeviation="0.78543346"/>
</filter>
<filter id="filter3934-8-1-9-9-7" x="-.36340904" y="-.7026912" width="1.7268181" height="2.4053824" color-interpolation-filters="sRGB">
<feGaussianBlur stdDeviation="1.8991999"/>
</filter>
<linearGradient id="linearGradient5469-2-1" x1="296.07889" x2="305.33273" y1="91.848145" y2="100.50741" gradientTransform="matrix(1.2219087,0,0,1.2219087,-199.0207,-94.584115)" gradientUnits="userSpaceOnUse">
<stop stop-color="#1c1518" offset="0"/>
<stop stop-color="#191715" offset="1"/>
</linearGradient>
<linearGradient id="linearGradient5671-2-6" x1="-11.50631" x2="-11.50631" y1="26.258963" y2="39.268726" gradientTransform="translate(13.877701,13.831199)" gradientUnits="userSpaceOnUse" xlink:href="#linearGradient10750"/>
<clipPath id="clipPath5589-7-7-5-4">
<path d="m0.45113526 39.688017c-0.2498636 0-0.45113526 0.200756-0.45113526 0.45062v12.912612c0 0.249864 0.20127166 0.451136 0.45113526 0.451136h3.47420684c0.2498635 0 0.4511352-0.201272 0.4511352-0.451136v-12.912612c0-0.249864-0.2012717-0.45062-0.4511352-0.45062z" color="#000000"/>
</clipPath>
<filter id="filter5465-7-8-8-9" x="-.32505909" y="-.025913246" width="1.6501182" height="1.0518265" color-interpolation-filters="sRGB">
<feGaussianBlur stdDeviation="0.07139097"/>
</filter>
<linearGradient id="linearGradient10927-7-7" x1="-12.542618" x2="-12.376025" y1="26.258963" y2="39.268726" gradientTransform="translate(13.877701,13.831199)" gradientUnits="userSpaceOnUse" xlink:href="#linearGradient10750"/>
<clipPath id="clipPath5589-9-4-6">
<path d="m0.45113526 39.688017c-0.2498636 0-0.45113526 0.200756-0.45113526 0.45062v12.912612c0 0.249864 0.20127166 0.451136 0.45113526 0.451136h3.47420684c0.2498635 0 0.4511352-0.201272 0.4511352-0.451136v-12.912612c0-0.249864-0.2012717-0.45062-0.4511352-0.45062z" color="#000000"/>
</clipPath>
<filter id="filter5465-7-5-2" x="-.32505909" y="-.025913246" width="1.6501182" height="1.0518265" color-interpolation-filters="sRGB">
<feGaussianBlur stdDeviation="0.07139097"/>
</filter>
<linearGradient id="linearGradient5475-3-1" x1="-12.504236" x2="-12.504236" y1="26.258963" y2="32.87096" gradientUnits="userSpaceOnUse" xlink:href="#linearGradient10750"/>
<clipPath id="clipPath5401-3-2-2">
<rect x="-13.8777" y="25.856594" width="4.3765388" height="7.4167299" ry=".45101735" color="#000000"/>
</clipPath>
<filter id="filter5465-2-4" x="-.32505909" y="-.025913246" width="1.6501182" height="1.0518265" color-interpolation-filters="sRGB">
<feGaussianBlur stdDeviation="0.07139097"/>
</filter>
<linearGradient id="linearGradient10927-6-4-1" x1="-11.506305" x2="-11.506305" y1="26.258963" y2="39.268726" gradientTransform="translate(13.877701,13.831199)" gradientUnits="userSpaceOnUse" xlink:href="#linearGradient10750"/>
<clipPath id="clipPath5589-9-9-0-3">
<path d="m0.45113526 39.688017c-0.2498636 0-0.45113526 0.200756-0.45113526 0.45062v12.912612c0 0.249864 0.20127166 0.451136 0.45113526 0.451136h3.47420684c0.2498635 0 0.4511352-0.201272 0.4511352-0.451136v-12.912612c0-0.249864-0.2012717-0.45062-0.4511352-0.45062z" color="#000000"/>
</clipPath>
<filter id="filter5465-7-1-5-6" x="-.32505909" y="-.025913246" width="1.6501182" height="1.0518265" color-interpolation-filters="sRGB">
<feGaussianBlur stdDeviation="0.07139097"/>
</filter>
</defs>
<metadata>
<rdf:RDF>
<cc:Work rdf:about="">
<dc:format>image/svg+xml</dc:format>
<dc:type rdf:resource="http://purl.org/dc/dcmitype/StillImage"/>
<dc:title/>
</cc:Work>
</rdf:RDF>
</metadata>
<g transform="translate(0,40.73109)">
<g transform="matrix(4.7014754 0 0 4.7014754 .06347354 -38.278363)">
<rect x="-.013500771" y="25.856596" width="4.3765388" height="7.4167299" ry=".45101735" color="#000000" fill="#aa7f6d"/>
<path transform="translate(13.8642)" d="m-13.330675 26.258962c-0.222752 0-0.402042 0.17929-0.402042 0.402042v5.807914c0 0.222752 0.17929 0.402042 0.402042 0.402042h0.826439v-6.611998z" clip-path="url(#clipPath5401-3-2-2)" color="#000000" fill="url(#linearGradient5475-3-1)" filter="url(#filter5465-2-4)"/>
</g>
<g transform="matrix(4.8366381,0,0,4.8366381,0,-31.455353)">
<path d="m0.45113526 39.688017c-0.2498636 0-0.45113526 0.200755-0.45113526 0.45062v12.912611c0 0.249865 0.20127166 0.451136 0.45113526 0.451136h3.47420674c0.2498635 0 0.4511353-0.201271 0.4511353-0.451136v-12.912611c0-0.249865-0.2012718-0.45062-0.4511353-0.45062z" color="#000000" fill="#aa7f6d"/>
<path d="m0.547026 40.090161c-0.222752 0-0.402042 0.17929-0.402042 0.402042v12.205679c0 0.222752 0.17929 0.402042 0.402042 0.402042h0.95465l1.548325-6.916516-1.7149182-6.093247z" clip-path="url(#clipPath5589-9-4-6)" color="#000000" fill="url(#linearGradient10927-7-7)" filter="url(#filter5465-7-5-2)"/>
</g>
<g transform="matrix(4.8366381,0,0,4.8366381,0,51.920757)">
<path d="m0.45113526 39.688017c-0.2498636 0-0.45113526 0.200755-0.45113526 0.45062v12.912611c0 0.249865 0.20127166 0.451136 0.45113526 0.451136h3.47420674c0.2498635 0 0.4511353-0.201271 0.4511353-0.451136v-12.912611c0-0.249865-0.2012718-0.45062-0.4511353-0.45062z" color="#000000" fill="#aa7f6d"/>
<path d="m0.547026 40.090161c-0.222752 0-0.402042 0.17929-0.402042 0.402042v12.205679c0 0.222752 0.17929 0.402042 0.402042 0.402042h1.8243649v-13.009763z" clip-path="url(#clipPath5589-7-7-5-4)" color="#000000" fill="url(#linearGradient5671-2-6)" filter="url(#filter5465-7-8-8-9)"/>
</g>
<g transform="matrix(-4.8366381,0,0,-4.8366381,514.53101,417.98333)">
<path d="m0.45113526 39.688017c-0.2498636 0-0.45113526 0.200755-0.45113526 0.45062v12.912611c0 0.249865 0.20127166 0.451136 0.45113526 0.451136h3.47420674c0.2498635 0 0.4511353-0.201271 0.4511353-0.451136v-12.912611c0-0.249865-0.2012718-0.45062-0.4511353-0.45062z" color="#000000" fill="#aa7f6d"/>
<path d="m0.547026 40.090161c-0.222752 0-0.402042 0.17929-0.402042 0.402042v12.205679c0 0.222752 0.17929 0.402042 0.402042 0.402042h1.8243704v-13.009763z" clip-path="url(#clipPath5589-9-9-0-3)" color="#000000" fill="url(#linearGradient10927-6-4-1)" filter="url(#filter5465-7-1-5-6)"/>
</g>
</g>
<g transform="translate(0,40.73109)">
<g transform="matrix(1.1473798,0,0,1.1473798,-1238.1583,-152.87592)">
<rect x="1083.6298" y="97.739685" width="439.41638" height="907.0506" ry="66.0093" fill="#d4a089" fill-rule="evenodd"/>
<rect transform="translate(466.47552,-7.9710971e-6)" x="619.09979" y="100.08234" width="435.52533" height="902.3653" ry="62.750046" clip-path="url(#clipPath11030)" fill="#fbd8c6" fill-rule="evenodd" filter="url(#filter11011)"/>
<path d="m1083.63 170.19663v13.71289h439.416v-13.71289zm0 748.4668v13.66992h439.416v-13.66992z" color="#000000" fill-opacity=".06542059"/>
<g>
<rect transform="translate(466.47556)" x="624.112" y="103.9917" width="425.50085" height="894.54657" ry="58.237717" clip-path="url(#clipPath11061)" color="#000000" fill="#f1f0f1" filter="url(#filter11042)"/>
<rect x="1093.8698" y="107.86505" width="418.93643" height="886.79987" ry="59.122261" color="#000000" fill="#fafbfd"/>
<path d="m1152.9932 107.86557c-32.7537 0-59.123 26.36736-59.123 59.12109v768.55469c0 32.75373 26.3693 59.12305 59.123 59.12305h6.4199c-32.7537 0-59.123-26.36932-59.123-59.12305v-768.55469c0-32.75373 26.3693-59.12109 59.123-59.12109zm294.2696 0c32.7537 0 59.123 26.36735 59.123 59.12109v768.55469c0 32.75373-26.3693 59.12305-59.123 59.12305h6.4199c32.7537 0 59.123-26.36932 59.123-59.12305v-768.55469c0-32.75374-26.3693-59.12109-59.123-59.12109z" color="#000000" fill="#fefefe"/>
</g>
</g>
</g>
<g transform="translate(0,40.73109)">
<rect x="33.042206" y="82.820824" width="448.44659" height="793.62714" stroke="#323331" stroke-linejoin="round" stroke-width="2.31274629"/>
</g>
<g transform="translate(0,40.73109)">
<g transform="translate(33.045502,-13.722862)" fill-rule="evenodd">
<circle cx="224.22" cy="944.17999" r="34.127758" fill="#895a45"/>
<g transform="translate(-91.439697)" clip-path="url(#clipPath1696-6-7)">
<g fill="#f1cab8">
<path d="m269.13351 943.59651s16.96689-2.98067 26.59675 2.98067c9.62986 5.96135 15.5912 28.20173 12.15196 39.20729-3.43923 11.00555-51.58852-20.8647-38.74871-42.18796z" filter="url(#filter1932-4-2)"/>
<path d="m316.59495 905.99421s-2.5221 22.24039 2.29283 28.43101 31.64096-8.48345 34.85091-15.36192c3.20996-6.87847-32.32881-23.15751-37.14374-13.06909z" filter="url(#filter2136-4-5)"/>
<path d="m331.95687 965.8369s3.20995 10.77627 12.38125 14.21551c9.17129 3.43923 22.69895-45.85647 10.77627-46.54432s-21.78183 15.5912-23.15752 32.32881z" filter="url(#filter1908-1-0)"/>
</g>
<g fill="#fefefd">
<path d="m275.32413 947.49431s15.36192-5.73206 20.40613 0.68785 0.91713 25.22106-5.96134 28.88958c-6.87847 3.66851-21.32326-22.69896-14.44479-29.57743z" filter="url(#filter1501-8-1)"/>
<path d="m317.97065 907.3699s-1.60498 14.21551 0.45856 15.13264 8.48345-10.77627 5.50278-16.50833-5.96134 1.37569-5.96134 1.37569z" filter="url(#filter1497-7-4)"/>
<path d="m342.50386 940.38656s7.10775-5.04421 12.38125-4.81493c5.27349 0.22928-0.55354 42.48916-9.72483 40.88418-9.17129-1.60497-11.6934-11.46411-11.6934-11.46411z" filter="url(#filter1493-5-6)"/>
</g>
</g>
<circle cx="224.22" cy="944.18005" r="30.375862" fill="#fafbfd"/>
</g>
</g>
<g transform="translate(0,40.73109)">
<rect x="210.71783" y="18.973215" width="93.095329" height="8.1849403" ry="4.0924702" color="#000000" fill="#232426"/>
<circle cx="257.2655" cy="-5.1113248" r="5.5903215" color="#000000" fill="#2c2c2c"/>
<path d="m176.03814 23.065685a7.7449 7.7449 0 0 1-15.4898 0 7.7449 7.7449 0 1 1 15.4898 0z" enable-background="new" fill="url(#linearGradient5469-2-1)" fill-rule="evenodd" opacity=".95999995"/>
<g>
<path d="m173.25734 23.300275a5.1253 5.1253 0 0 1-10.2506 0 5.1253 5.1253 0 1 1 10.2506 0z" enable-background="new" opacity=".95999995"/>
<path d="m172.92124 23.300275a4.78925 4.78925 0 1 1-9.5785 0 4.78925 4.78925 0 1 1 9.5785 0z" enable-background="new" fill="#001a49" opacity=".95999995"/>
<path d="m171.09184 23.132225a2.8758047 2.8758047 0 0 1-5.7516 0 2.8758047 2.8758047 0 1 1 5.7516 0z" enable-background="new" fill="#232323" opacity=".75" stroke="#555" stroke-width=".57477969"/>
</g>
<path transform="matrix(-.13639274 .38519761 -.38519761 -.13639274 254.31314 -144.70297)" d="m449.82764 63.308677c0.93806 3.51695 7.28221 7.17944 12.54256 6.37409-2.53593-3.30357-10.00663-5.22534-12.54256-6.37409z" enable-background="new" fill="#fff" filter="url(#filter3934-8-1-9-9-7)" opacity=".95999995"/>
</g>
</svg>
